<svg xmlns="http://www.w3.org/2000/svg" viewBox="0 0 5008 5008">
  <defs/>
  <ellipse cx="2516.7" cy="2436.3" fill="#4d7514" fill-rule="evenodd" stroke="#000" stroke-width="63.4" paint-order="stroke fill markers" rx="2329.5" ry="2144.2"/>
  <g fill="none" paint-order="stroke fill markers">
    <path stroke="#fffffc" stroke-width="224.2" d="M2504 360c-52 2-105 3-157 6l-210 26-209 47-203 68-196 87-186 107-174 125-161 142-146 157-129 171-112 182-93 193-73 202-53 208-32 211-10 216 6 153c8 70 16 140 26 210l47 209c22 68 44 136 68 203l87 196 107 185 125 175 142 160 157 146 170 130 183 112 193 93 202 73 207 53 212 31 216 11c51-2 102-3 152-6l211-26 209-47 203-68 196-88 185-106 174-125 161-142 146-157 130-171c37-61 75-121 111-182 31-65 63-129 93-194l74-201 52-208 32-212 11-215-6-153-26-210-47-209-68-203-88-196-107-186-124-174-142-161-157-145-171-130-183-112-193-93-201-73-208-53-212-31-211-11z"/>
    <path stroke="#222111" stroke-width="248.9" d="M2504 125c-58 2-115 3-172 6l-235 29-232 52-226 75-217 98-206 118-193 139-179 157-162 174-143 190c-42 67-84 135-124 203l-104 214-81 223-59 231-35 235-11 239c2 56 3 113 6 169l29 234 52 232 75 225 98 217 118 207 139 193 157 178 174 162 189 144 203 124 215 103 223 82 231 58 235 36 239 11c56-2 113-3 169-6l234-29 232-52 225-75 217-98 206-118 194-139 178-157 162-174 144-190 124-203 103-214 82-223 58-231 35-235c4-80 9-159 12-239-2-56-3-113-6-169l-29-234-52-232-76-226-97-217-118-206-139-193-157-179-174-161c-64-48-126-97-190-144l-203-124c-71-35-142-70-214-103l-224-82-230-58-235-36-235-11z"/>
  </g>
  <path fill="#fff" d="M2229 788c-17 0-33 1-48 8-8 4-18 10-22 19-8 16-10 35-3 51 7 18 21 33 28 51l26 61 7 18 12 33a198 198 0 0120 58l4 19 5 34c2 11 2 22 5 33l3 42 4 39 5 72 3 55c3 66 6 133 7 200 3 51 2 104 3 156 0 22 2 45 1 68l-30 6c-7 0-14 3-22 3-8 2-17 2-26 5-9 0-17 3-27 4l-23 4-29 4-42 7c-9 0-17 4-26 4l-54 8-25 4c-8 0-17 4-25 4l-29 4c-9 1-19 4-29 4l-25 4-29 4-52 8c-8 1-17 3-26 3-13 3-27 4-40 6l-30 4c-9 1-17 3-26 3-11 3-21 3-32 5-10 0-19 3-29 3-11 3-23 3-35 6l-44 5-34 5-36 4-44 6c-9 1-19 1-28 4l-38 4c-9 2-18 1-27 4-12 0-23 3-35 3-11 1-21 11-21 23-2 22 11 42 24 59 20 26 46 49 72 69 35 24 71 46 111 61l16 5 24 6c18 2 36 1 54-2l22-4 18-4 19-4 36-8a529 529 0 0172-17l17-4 20-4 18-4 41-8c9-2 17-5 26-5 9-3 18-3 26-6l36-6c13-4 26-5 39-8l54-9 22-4 25-4 30-5 45-6 29-4 31-4c5 0 0 6-1 9-23 57-51 113-85 165a5935 5935 0 01-262 406 3460 3460 0 01-244 300 4117 4117 0 01-443 434 4678 4678 0 01-293 230c0 9-1 17 1 25 3 3 7-2 11-2l42-14 21-7 35-12 12-4 19-8 14-5 30-11 35-15 59-25c3-2 7-2 10-5 30-12 59-27 88-41 48-24 95-50 141-78 3-1 5-5 9-6a2110 2110 0 00452-379c40-44 79-90 118-136 103-124 196-255 282-390l37-60c2-3 5-2 3 1l-4 289-7 266c-3 31-2 62-4 93l-5 105-5 93c-2 15-1 31-3 46l-5 64-4 52c-1 11-4 21-4 32l-4 54-4 44c-3 21-5 42-10 63l-4 15-11 32a385 385 0 00-16 93c-2 31-2 63 3 94l4 22c4 12 6 24 11 36 2 8 4 16 8 23l4 11c14 32 30 64 46 95 24 42 48 85 87 115 8 7 19 12 29 14 10 1 21 2 31-2 35-8 63-34 86-60 18-22 32-46 50-67a263 263 0 0047-94l8-32 7-33c1-16 5-32 5-48 4-39 2-78 2-117-3-65-6-130-7-195-3-36-3-73-5-109l-4-114c-2-38-2-76-5-114 1-22 0-44-2-65 0-57-4-114-4-171-3-33-2-66-4-98l-3-135-6-286c0-12-1-25 1-36 4 2 5 9 8 12 52 82 105 163 159 244l89 132c52 84 113 162 175 238a6103 6103 0 00304 348c33 33 72 61 115 78l14 5 25 7 23 4c31 5 63 2 95 3 83 0 167-1 250-5 52-2 103-5 154-10l36-4c8-1 15-3 23-3 13-3 27-3 41-5l28-4 25-4 20-4 23-5 28-6 17-5 41-10c14-4 31-11 35-27 4-15 0-33-13-43-15-12-33-17-52-19-7-2-14-1-21-5l-16-6-33-12-13-5-40-15-15-5-49-19-20-8-55-22-25-10-22-9-66-28-75-33c-5-4-12-4-18-8a3312 3312 0 01-320-170l-14-8c-52-33-101-70-147-110-75-63-147-130-216-199a6216 6216 0 01-341-365c-41-47-83-95-123-144l-40-47c1-27-1-54 1-81 12-5 26-2 39-5 18 0 34-4 52-4 11-3 23-2 34-3l56-5 114-8c20 0 39-3 59-3l82-5c24 0 47-3 71-3l128-5 166-4 105-2c41 0 84 1 125-1 13-2 24-10 31-20 6-11 11-24 13-36 3-23 4-47 2-71 0-11-3-21-6-32-7-20-17-40-31-56-22-27-51-49-83-63-21-11-43-20-65-28l-14-5-33-10c-12-1-23-4-34-6-26-3-53-5-79-3-38 1-76 4-114 9l-31 5-28 5-19 4-18 4-19 4-24 6c-11 1-20 4-30 6l-20 4-33 7-18 4-42 9-19 3c-6 2-13 2-20 5-7 0-13 2-20 3-6 3-13 2-20 5l-24 4-19 4-37 7-25 4-20 4c-12 3-24 3-36 7-10 0-20 4-31 5l-35 6c-10 1-20 5-30 4-2-18 2-37 2-55 1-56 3-112 6-167l4-54 4-64c2-14 2-28 5-42 0-13 3-25 3-37 2-14 5-28 6-43 3-11 3-23 7-34l6-27c5-15 5-31 9-46l4-17 4-19 9-32c9-25 19-50 32-73 9-15 24-26 30-42 5-15 8-32 5-47-2-12-5-24-12-34-14-27-40-45-67-58l-38-17-21-6-13-4-44-12c-5-1-10-4-15-4l-33-8-24-5-24-4c-17-4-35-5-53-8l-36-4a837 837 0 00-110-4z"/>
</svg>
